# xmcd
#
# Track frame offsets: 
#        150
#        18971
#        40950
#        57979
#        77029
#        92447
#        106422
#        127608
#        142258
#        158398
#        176323
#        199338
#        211079
#
# Disc length: 2990 seconds
#
# Revision: 0
# Processed by: cddbd v1.5.2PL0 Copyright (c) Steve Scherf et al.
# Submitted via: ExactAudioCopy v0.99pb4
#
DISCID=9e0bac0d
DTITLE=Boo Boo Davis - Name Of The Game
DYEAR=2008
DGENRE=Blues
TTITLE0=Dirty Dog
TTITLE1=I'm Coming Home
TTITLE2=Stay From The Casino
TTITLE3=Want Nobody Tell Me How To Live My Life
TTITLE4=Trying To Get Ahead
TTITLE5=Name Of The Game
TTITLE6=Who Stole The Booty
TTITLE7=Why You Wonna Do it
TTITLE8=Lonely All By Myself
TTITLE9=It's a Shame
TTITLE10=I'm So Tired
TTITLE11=Hot Foot
TTITLE12=St Louis Woman
EXTD=
EXTT0=
EXTT1=
EXTT2=
EXTT3=
EXTT4=
EXTT5=
EXTT6=
EXTT7=
EXTT8=
EXTT9=
EXTT10=
EXTT11=
EXTT12=
PLAYORDER=
